<svg width="18" height="18" viewBox="0 0 18 18" fill="none" xmlns="http://www.w3.org/2000/svg">
<path fill-rule="evenodd" clip-rule="evenodd" d="M0.642857 3.6H1.92857V15.888C1.9321 17.0531 2.94315 17.9967 4.19143 18H13.8343C15.0725 17.9836 16.068 17.0438 16.0714 15.888V3.6H17.3571C17.7122 3.6 18 3.33137 18 3C18 2.66863 17.7122 2.4 17.3571 2.4H12.8571V1.2C12.8574 0.548799 12.3011 0.01628 11.6036 0H6.42857C5.71849 0 5.14286 0.537258 5.14286 1.2V2.4H0.642857C0.287817 2.4 0 2.66863 0 3C0 3.33137 0.287817 3.6 0.642857 3.6ZM6.42832 1.2002H11.5712V2.4002H6.42832V1.2002ZM14.7865 3.6001H5.14361H3.21504V15.8881C3.21486 16.3826 3.63687 16.7871 4.16647 16.8001H13.8093C14.349 16.8001 14.7865 16.3918 14.7865 15.8881V3.6001Z" fill="#E02020"/>
<path d="M6.86551 14.4C7.22055 14.4 7.50837 14.1314 7.50837 13.8V6.6C7.50837 6.26863 7.22055 6 6.86551 6C6.51047 6 6.22266 6.26863 6.22266 6.6V13.8C6.22266 14.1314 6.51047 14.4 6.86551 14.4Z" fill="#E02020"/>
<path d="M11.1331 14.4C11.4881 14.4 11.7759 14.1314 11.7759 13.8V6.6C11.7759 6.26863 11.4881 6 11.1331 6C10.7781 6 10.4902 6.26863 10.4902 6.6V13.8C10.4902 14.1314 10.7781 14.4 11.1331 14.4Z" fill="#E02020"/>
</svg>
