<svg width="19" height="18" viewBox="0 0 19 18" fill="none" xmlns="http://www.w3.org/2000/svg">
<path d="M15.9819 9.02023C15.5981 9.02023 15.287 9.30741 15.287 9.66166V16.0758C15.287 16.4301 14.9759 16.7172 14.5922 16.7172H2.0846C1.70082 16.7172 1.38972 16.4301 1.38972 16.0758V3.24749C1.38972 2.89323 1.70082 2.60606 2.0846 2.60606H10.423C10.8068 2.60606 11.1179 2.31889 11.1179 1.96463C11.1179 1.61038 10.8068 1.32324 10.423 1.32324H2.0846C0.933307 1.32324 0 2.18476 0 3.24749V16.0758C0 17.1385 0.933307 18 2.0846 18H14.5922C15.7435 18 16.6768 17.1385 16.6768 16.0758V9.66163C16.6768 9.30741 16.3657 9.02023 15.9819 9.02023Z" fill="#4F4F4F"/>
<path fill-rule="evenodd" clip-rule="evenodd" d="M15.9919 1.04671e-05C16.6637 -6.70634e-05 17.308 0.266793 17.7831 0.7419C18.772 1.73099 18.7719 3.33456 17.7828 4.32354L9.0683 13.038C8.99569 13.1108 8.90711 13.1656 8.80962 13.1981L4.84006 14.5213C4.77261 14.5435 4.70202 14.5549 4.631 14.555C4.56014 14.555 4.4897 14.5435 4.42244 14.5211C4.07576 14.4057 3.88833 14.0311 4.00382 13.6844L5.32699 9.71481C5.35959 9.61751 5.41413 9.52897 5.48643 9.45613L14.201 0.742326C14.6747 0.265397 15.3197 -0.00192779 15.9919 1.04671e-05ZM8.24576 11.9894L16.8465 3.38864C17.0738 3.1621 17.2012 2.85414 17.2004 2.53321C17.1994 2.21397 17.0724 1.90808 16.8469 1.68212C16.3748 1.2091 15.6086 1.20833 15.1356 1.68041L6.53156 10.2811L5.67613 12.8474L8.24576 11.9894Z" fill="#4F4F4F"/>
</svg>
