<svg width="16" height="16" viewBox="0 0 16 16" fill="none" xmlns="http://www.w3.org/2000/svg">
<path d="M4.66732 7.33337L7.33398 1.33337C7.86442 1.33337 8.37313 1.54409 8.7482 1.91916C9.12327 2.29423 9.33398 2.80294 9.33398 3.33337V6.00004H13.1073C13.3006 5.99785 13.492 6.03771 13.6684 6.11685C13.8447 6.196 14.0017 6.31253 14.1286 6.45838C14.2554 6.60424 14.349 6.77592 14.4029 6.96154C14.4568 7.14716 14.4697 7.34228 14.4407 7.53337L13.5207 13.5334C13.4724 13.8513 13.3109 14.1411 13.0659 14.3494C12.8209 14.5576 12.5089 14.6703 12.1873 14.6667H4.66732M4.66732 7.33337V14.6667M4.66732 7.33337H2.66732C2.3137 7.33337 1.97456 7.47385 1.72451 7.7239C1.47446 7.97395 1.33398 8.31309 1.33398 8.66671V13.3334C1.33398 13.687 1.47446 14.0261 1.72451 14.2762C1.97456 14.5262 2.3137 14.6667 2.66732 14.6667H4.66732" stroke="#5C5F62" stroke-width="1.33333" stroke-linecap="round" stroke-linejoin="round"/>
</svg>
