<svg width="25" height="16" viewBox="0 0 25 16" fill="none" xmlns="http://www.w3.org/2000/svg">
<path opacity="0.8" d="M1.83334 16C1.45556 16 1.13867 15.872 0.882671 15.616C0.626671 15.36 0.499116 15.0436 0.500005 14.6667C0.500005 14.2889 0.628005 13.972 0.884005 13.716C1.14 13.46 1.45645 13.3324 1.83334 13.3333H23.1667C23.5444 13.3333 23.8613 13.4613 24.1173 13.7173C24.3733 13.9733 24.5009 14.2898 24.5 14.6667C24.5 15.0444 24.372 15.3613 24.116 15.6173C23.86 15.8733 23.5436 16.0009 23.1667 16H1.83334ZM1.83334 9.33333C1.45556 9.33333 1.13867 9.20533 0.882671 8.94933C0.626671 8.69333 0.499116 8.37689 0.500005 8C0.500005 7.62222 0.628005 7.30533 0.884005 7.04933C1.14 6.79333 1.45645 6.66578 1.83334 6.66667H23.1667C23.5444 6.66667 23.8613 6.79467 24.1173 7.05067C24.3733 7.30667 24.5009 7.62311 24.5 8C24.5 8.37778 24.372 8.69467 24.116 8.95067C23.86 9.20667 23.5436 9.33422 23.1667 9.33333H1.83334ZM1.83334 2.66667C1.45556 2.66667 1.13867 2.53867 0.882671 2.28267C0.626671 2.02667 0.499116 1.71023 0.500005 1.33334C0.500005 0.95556 0.628005 0.638671 0.884005 0.382671C1.14 0.126671 1.45645 -0.000884275 1.83334 4.6136e-06H23.1667C23.5444 4.6136e-06 23.8613 0.128005 24.1173 0.384005C24.3733 0.640004 24.5009 0.956448 24.5 1.33334C24.5 1.71111 24.372 2.028 24.116 2.284C23.86 2.54 23.5436 2.66756 23.1667 2.66667H1.83334Z" fill="#FFFFFF"/>
</svg>
