<svg width="46" height="46" viewBox="0 0 46 46" fill="none" xmlns="http://www.w3.org/2000/svg">
<rect x="0.499756" y="0.5" width="45" height="45" rx="12.5" fill="white" stroke="#E1E1E1"/>
<path d="M1.99976 31.3004H2.72895L3.81384 33.2392L4.8491 31.3004H5.47522L3.99137 33.9996H3.55678L1.99976 31.3004Z" fill="#004B8D"/>
<path d="M6.00525 31.3002H6.63137V33.9994H6.00525V31.3002Z" fill="#004B8D"/>
<path d="M7.62024 31.3002H10.3805V31.9028H8.24636V32.3081H9.4935V32.8795H8.24636V33.4013H10.4085V34H7.62024V31.3008V31.3002Z" fill="#004B8D"/>
<path d="M12.8588 33.9994H12.2283V31.9028H10.9894V31.3002H14.0977V31.9028H12.8588V33.9994Z" fill="#004B8D"/>
<path d="M14.7893 31.3002H15.2793L17.4611 33.1378V31.3002H18.0872V33.9994H17.5973L15.4154 32.1656V33.9994H14.7893V31.3002Z" fill="#004B8D"/>
<path d="M20.1425 31.3002H20.7489L22.2964 33.9994H21.5908L21.2764 33.4083H19.5629L19.2428 33.9994H18.6167L20.1425 31.3002ZM20.9685 32.8337L20.4251 31.8258L19.8759 32.8337H20.9685Z" fill="#004B8D"/>
<path d="M26.5156 31.3002V33.9994H25.887V32.1458L24.7391 33.6755H24.6125L23.4506 32.1458V33.9994H22.8245V31.3002H23.5397L24.7314 32.8674L25.9092 31.3002H26.5156Z" fill="#004B8D"/>
<path d="M28.8934 31.3002H31.2076C31.3101 31.3002 31.3909 31.3053 31.4488 31.3161C31.5067 31.3269 31.5614 31.3472 31.613 31.3772C31.6893 31.4204 31.7415 31.4802 31.7701 31.5547C31.7988 31.6298 31.8128 31.743 31.8128 31.8945V32.3882C31.8128 32.4805 31.8089 32.5511 31.802 32.6008C31.795 32.6504 31.7803 32.6981 31.7593 32.7439C31.7211 32.8311 31.6601 32.8915 31.5767 32.9265C31.4933 32.9615 31.3699 32.9787 31.2083 32.9787H29.5208V33.9981H28.8947V31.2989L28.8934 31.3002ZM30.9207 32.4086C31.0155 32.4086 31.0829 32.3933 31.123 32.3621C31.1631 32.331 31.1835 32.2807 31.1835 32.2107V32.0962C31.1835 32.0262 31.1631 31.9765 31.123 31.9473C31.0829 31.9174 31.0155 31.9027 30.9207 31.9027H29.5195V32.4086H30.9207Z" fill="#004B8D"/>
<path d="M35.8431 33.4044C35.8431 33.5152 35.8329 33.608 35.8126 33.6838C35.7922 33.7595 35.7585 33.8206 35.712 33.8677C35.6656 33.9147 35.6039 33.9478 35.5281 33.9682C35.4524 33.9886 35.3589 33.9987 35.2488 33.9987H33.2254C33.1147 33.9987 33.0224 33.9886 32.9479 33.9682C32.8735 33.9478 32.8131 33.9141 32.766 33.8677C32.7189 33.8212 32.6858 33.7595 32.6654 33.6838C32.6451 33.608 32.6349 33.5145 32.6349 33.4044V31.8945C32.6349 31.6756 32.6788 31.5223 32.7666 31.4332C32.8544 31.3441 33.0071 31.2996 33.226 31.2996H35.2494C35.3602 31.2996 35.4531 31.3104 35.5288 31.332C35.6045 31.3536 35.6656 31.3874 35.7127 31.4325C35.7591 31.4777 35.7928 31.5394 35.8132 31.6164C35.8336 31.6934 35.8437 31.7863 35.8437 31.8939V33.4038L35.8431 33.4044ZM35.217 33.4006V31.9028H33.2604V33.4006H35.217Z" fill="#004B8D"/>
<path d="M37.2704 33.0767V33.4006H39.031V32.9266H37.3041C37.1934 32.9266 37.1005 32.9164 37.0248 32.8966C36.9491 32.8769 36.8886 32.8432 36.8428 32.7961C36.797 32.749 36.7639 32.6873 36.7423 32.6116C36.7206 32.5359 36.7098 32.4423 36.7098 32.3323V31.8958C36.7098 31.6769 36.7544 31.5235 36.8434 31.4344C36.9325 31.3454 37.0859 31.3008 37.3048 31.3008H39.0279C39.1386 31.3008 39.2315 31.3116 39.3072 31.3333C39.3829 31.3549 39.4446 31.3886 39.4917 31.4338C39.5394 31.479 39.5725 31.5407 39.5923 31.6177C39.612 31.6947 39.6222 31.7876 39.6222 31.8951V32.0809L38.996 32.2114V31.9034H37.3359V32.352H39.0648C39.1755 32.352 39.2684 32.3628 39.3435 32.3844C39.4185 32.4061 39.4796 32.4398 39.5274 32.4862C39.5751 32.5327 39.6088 32.5938 39.6292 32.6708C39.6495 32.7478 39.6597 32.8407 39.6597 32.9482V33.4044C39.6597 33.5151 39.6495 33.608 39.6292 33.6837C39.6088 33.7595 39.5751 33.8206 39.5274 33.8676C39.4796 33.9147 39.4185 33.9478 39.3435 33.9682C39.2684 33.9885 39.1755 33.9987 39.0648 33.9987H37.2348C37.1241 33.9987 37.0318 33.9885 36.9573 33.9682C36.8829 33.9478 36.8225 33.9141 36.7754 33.8676C36.7283 33.8212 36.6952 33.7595 36.6748 33.6837C36.6545 33.608 36.6443 33.5145 36.6443 33.4044V33.2065L37.2704 33.0761V33.0767Z" fill="#004B8D"/>
<path d="M42.1374 33.9994H41.5068V31.9028H40.2679V31.3002H43.3763V31.9028H42.1374V33.9994Z" fill="#004B8D"/>
<path d="M24.699 22.8171C26.6359 22.8171 28.5721 22.8171 30.509 22.8171C30.5325 22.8171 30.5567 22.8145 30.5803 22.8184C30.6191 22.8241 30.6719 22.8005 30.6954 22.8394C30.726 22.8896 30.6795 22.9246 30.649 22.9602C30.4161 23.2377 30.1832 23.5157 29.9503 23.7932C29.559 24.2596 29.169 24.7272 28.777 25.193C28.3488 25.7021 27.9186 26.2092 27.4885 26.7163C27.1633 27.0994 26.842 27.4862 26.5111 27.8642C26.1758 28.2466 25.7527 28.4973 25.2424 28.4992C22.1092 28.51 18.9761 28.5056 15.843 28.5037C15.4962 28.5037 15.2181 28.3147 14.9509 28.127C14.251 27.6358 13.5593 27.1318 12.8651 26.6323C12.2008 26.1545 11.5391 25.6734 10.8735 25.1962C10.0997 24.642 9.32346 24.0903 8.54909 23.538C7.90706 23.0805 7.26567 22.6224 6.62429 22.1649C6.48621 22.0662 6.34813 21.9689 6.21196 21.8684C5.80791 21.568 5.82 20.926 6.21705 20.6556C6.83681 20.2331 7.43938 19.7864 8.0515 19.3531C8.77561 18.8396 9.50035 18.3267 10.2276 17.8177C10.7017 17.4862 11.1643 17.1394 11.6479 16.8219C11.7675 16.7436 11.8737 16.638 12.0004 16.5667C12.3306 16.3816 12.5978 16.5464 12.86 16.7334C13.4772 17.1738 14.0957 17.6115 14.7135 18.0512C15.2671 18.4444 15.8194 18.8396 16.3736 19.2322C17.0188 19.6897 17.6602 20.1529 18.3131 20.5989C18.5727 20.7758 18.6885 21.0055 18.6885 21.3078C18.6891 21.7519 18.6955 22.1961 18.684 22.6402C18.6802 22.791 18.726 22.8241 18.8711 22.8234C20.8137 22.8184 22.7563 22.8203 24.699 22.8203V22.819V22.8171ZM13.1349 21.052C12.2116 21.0526 11.2877 21.0526 10.3644 21.0526C10.2232 21.0526 10.0826 21.0704 10.0278 21.2232C9.97121 21.3816 10.0654 21.4917 10.1863 21.5776C11.0065 22.1572 11.8267 22.7363 12.6475 23.3147C13.2602 23.7467 13.8762 24.1749 14.4877 24.6083C14.9318 24.9232 15.3696 25.2458 15.8131 25.5614C15.8932 25.6187 15.9798 25.6868 16.0892 25.6238C16.1987 25.5608 16.2566 25.4755 16.2566 25.3368C16.2521 24.04 16.2547 22.7439 16.2534 21.4471C16.2534 21.1315 16.1694 21.0514 15.8531 21.0514C14.9471 21.0514 14.0416 21.0514 13.1355 21.0514L13.1349 21.052Z" fill="#FFC600"/>
<path d="M26.1969 13.977C26.4464 13.6805 26.6729 13.4069 26.8975 13.1383C27.0763 12.9245 27.2519 12.7082 27.4294 12.4931C27.6795 12.1903 27.9875 12.0032 28.3922 12.0032C31.9382 12.0038 35.4843 12.0045 39.0304 12C39.1927 12 39.3078 12.0503 39.3772 12.1852C39.451 12.329 39.4237 12.4651 39.3161 12.593C38.9471 13.0321 38.1294 13.9814 38.1294 13.9814C36.2294 13.9808 34.1933 13.9783 32.2933 13.9789C30.3284 13.9789 26.3083 13.9789 26.1963 13.977H26.1969Z" fill="#FFC600"/>
<path d="M35.9284 16.6265L37.4282 14.8347H25.4149L23.9106 16.6265H35.9284Z" fill="#FFC600"/>
<path d="M33.7274 19.257L35.1775 17.5244H23.1572L21.7026 19.257H33.7274Z" fill="#FFC600"/>
<path d="M20.9493 20.1542L19.4375 21.9555H31.4693L32.976 20.1542H20.9493Z" fill="#FFC600"/>
</svg>
