<svg width="90" height="90" viewBox="0 0 90 90" fill="none" xmlns="http://www.w3.org/2000/svg">
<path d="M28.3477 62.9743C29.4756 63.7698 30.8227 64.196 32.203 64.1935C33.5847 64.1948 34.9321 63.7628 36.0558 62.9583C37.1918 62.1231 38.0539 60.9692 38.5326 59.6431L41.3934 50.8559C42.1257 48.6524 43.3612 46.6498 45.0021 45.0069C46.6424 43.3638 48.6437 42.1256 50.846 41.3903L59.7484 38.5038C60.7212 38.156 61.5992 37.5877 62.3154 36.8434C63.0316 36.0992 63.5653 35.1992 63.8751 34.2142C64.1855 33.229 64.2629 32.1856 64.1023 31.1654C63.9416 30.1453 63.5468 29.1763 62.9484 28.3343C62.0901 27.1443 60.8684 26.266 59.4668 25.8319L50.6668 22.9711C48.462 22.24 46.4581 21.005 44.8138 19.3641C43.1695 17.7233 41.9304 15.7217 41.195 13.5183L38.3022 4.63509C37.8394 3.34031 36.9849 2.22185 35.8574 1.43509C35.0083 0.835222 34.031 0.441749 33.0033 0.285909C31.9755 0.130133 30.9255 0.216278 29.9369 0.537494C28.9482 0.858774 28.0482 1.40629 27.3083 2.13653C26.5685 2.86671 26.0092 3.75951 25.675 4.74389L22.7502 13.7039C22.0168 15.8467 20.8061 17.795 19.2096 19.4015C17.6131 21.008 15.6724 22.2307 13.5342 22.9775L4.63175 25.8447C3.66036 26.1928 2.78273 26.761 2.06753 27.5047C1.35226 28.2485 0.818823 29.1477 0.508935 30.1319C0.199047 31.1162 0.121095 32.1587 0.281159 33.1781C0.441287 34.1975 0.83508 35.166 1.43175 36.0079C2.24993 37.1564 3.40692 38.0202 4.74055 38.4783L13.5342 41.3262C16.3509 42.2638 18.8241 44.0195 20.6382 46.3695C21.6776 47.7173 22.4805 49.2322 23.0126 50.8495L25.9053 59.7519C26.3663 61.053 27.2197 62.1788 28.3477 62.9743ZM67.6261 88.8463C68.4965 89.462 69.5359 89.7929 70.6021 89.7935C71.6588 89.7941 72.6892 89.4677 73.5525 88.8591C74.4453 88.2287 75.1173 87.3333 75.4725 86.2991L77.0597 81.4223C77.4002 80.4085 77.9698 79.4863 78.7237 78.7279C79.4751 77.9695 80.3967 77.4012 81.4117 77.0703L86.3525 75.4575C87.3618 75.1087 88.2367 74.4533 88.8549 73.5823C89.3247 72.9231 89.6312 72.1621 89.7496 71.3615C89.868 70.5609 89.7951 69.7436 89.5365 68.9762C89.278 68.2095 88.8409 67.5151 88.2623 66.9493C87.6831 66.3836 86.9784 65.9637 86.2053 65.7231L81.3157 64.1295C80.3039 63.7935 79.3836 63.2258 78.6284 62.4732C77.8732 61.7199 77.3029 60.8015 76.9637 59.7903L75.3509 54.8431C75.0072 53.8332 74.3506 52.9589 73.4757 52.3471C72.8229 51.8805 72.069 51.5733 71.276 51.4517C70.4824 51.3295 69.6716 51.396 68.9087 51.645C68.1452 51.894 67.4514 52.3189 66.8831 52.886C66.3148 53.4524 65.8872 54.1449 65.6357 54.9071L64.0549 59.7839C63.7202 60.7932 63.1602 61.7122 62.4165 62.4719C61.6824 63.2175 60.7871 63.7845 59.7989 64.1295L54.8517 65.7423C53.8341 66.0872 52.9503 66.7439 52.3263 67.6194C51.7023 68.4943 51.3695 69.5439 51.3752 70.6185C51.381 71.693 51.7247 72.7388 52.3576 73.6079C52.9912 74.4764 53.8815 75.1234 54.9029 75.4575L59.7861 77.0383C60.8031 77.3801 61.7272 77.9516 62.4869 78.7087C63.2434 79.4658 63.8098 80.3913 64.1381 81.4095L65.7573 86.3631C66.108 87.3647 66.7608 88.2325 67.6261 88.8463Z" fill="#ee0033"/>
</svg>
