<svg width="12" height="18" viewBox="0 0 12 18" fill="none" xmlns="http://www.w3.org/2000/svg">
<path d="M7.66699 2.33329V6.49996C7.66699 7.43329 7.97533 8.29996 8.50033 8.99996H3.50033C4.04199 8.28329 4.33366 7.41663 4.33366 6.49996V2.33329H7.66699ZM10.167 0.666626H1.83366C1.37533 0.666626 1.00033 1.04163 1.00033 1.49996C1.00033 1.95829 1.37533 2.33329 1.83366 2.33329H2.66699V6.49996C2.66699 7.88329 1.55033 8.99996 0.166992 8.99996V10.6666H5.14199V16.5L5.97533 17.3333L6.80866 16.5V10.6666H11.8337V8.99996C10.4503 8.99996 9.33366 7.88329 9.33366 6.49996V2.33329H10.167C10.6253 2.33329 11.0003 1.95829 11.0003 1.49996C11.0003 1.04163 10.6253 0.666626 10.167 0.666626Z" fill="#4F4F4F"/>
</svg>
